<svg xmlns="http://www.w3.org/2000/svg" viewBox="0 0 91.97 91.97"><g id="Calque_2" data-name="Calque 2"><g id="Calque_1-2" data-name="Calque 1"><path d="M83.13,0H8.84A8.84,8.84,0,0,0,0,8.85V83.13A8.84,8.84,0,0,0,8.84,92H19c1.11-14.88,2.77-38.81,2.36-43.43a1.33,1.33,0,0,0-.66-1.14c-4.48-3.12-6.12-6.78-6.12-15.77l1.11-16.49h.46l1.3,21c0,.49.2.89.65.89s.65-.4.65-.89l1.23-21h.56l1.22,21c0,.49.22.89.66.89s.65-.4.65-.89l1.28-21h.52l1.23,21c0,.49.21.89.65.89s.66-.4.66-.89l1.22-21h.51l1.13,16.49c0,9-1.66,12.65-6.13,15.77a1.35,1.35,0,0,0-.66,1.14c-.41,4.62,1.25,28.55,2.35,43.43H43.54c.5-9.64,1-20,1-25.65h0c-1,0,.46-2.43-1.29-3.25a3.81,3.81,0,0,1-2.32-2.93C37.71,49,41.66,26.79,44.06,23c1.32-2.13,4.25-1.92,4.25-.44,0,0,0,42.09,0,43.36,0,5.53.47,16.19,1,26.1H66.15c1.1-15.17,2.63-37.82,2.22-42.13a1.26,1.26,0,0,0-.66-1.11c-4.46-3-9-8-9-16.74,0-9.84,5.82-17.82,10.76-17.82s10.75,8,10.75,17.82a19.18,19.18,0,0,1-9,16.74,1.27,1.27,0,0,0-.65,1.11c-.4,4.31,1.12,27,2.23,42.13h10.4A8.84,8.84,0,0,0,92,83.13V8.85A8.84,8.84,0,0,0,83.13,0Z"/></g></g></svg>